<?xml version="1.0" standalone="no"?>
<!DOCTYPE svg PUBLIC "-//W3C//DTD SVG 20010904//EN"
 "http://www.w3.org/TR/2001/REC-SVG-20010904/DTD/svg10.dtd">
<svg version="1.0" xmlns="http://www.w3.org/2000/svg"
 width="163.000000pt" height="300.000000pt" viewBox="0 0 163.000000 300.000000"
 preserveAspectRatio="xMidYMid meet">

<g transform="translate(0.000000,300.000000) scale(0.100000,-0.100000)"
fill="#000000" stroke="none">
<path d="M0 2804 c0 -178 1 -194 16 -180 35 35 65 21 162 -78 97 -98 110 -127
74 -159 -40 -37 -71 -23 -165 72 l-87 89 0 -1274 0 -1274 815 0 815 0 0 1274
0 1273 -89 -88 c-71 -71 -94 -89 -117 -89 -40 1 -64 22 -64 56 0 24 18 47 93
122 100 100 131 113 161 70 15 -21 16 -6 16 180 l0 202 -815 0 -815 0 0 -196z
m495 125 c-4 -6 2 -5 13 2 18 11 24 10 41 -5 25 -23 104 -262 96 -293 -7 -30
-39 -46 -75 -38 -23 5 -32 15 -45 53 -10 26 -21 56 -25 67 -19 45 -50 150 -50
167 0 10 9 27 20 38 22 22 35 27 25 9z m665 -9 c11 -11 20 -28 20 -37 -1 -10
-20 -74 -43 -143 -35 -102 -48 -128 -70 -140 -24 -13 -30 -13 -54 1 -25 14
-28 21 -26 63 1 26 5 52 10 59 5 7 20 48 33 92 22 75 52 121 70 110 5 -3 11
-1 15 5 9 15 23 12 45 -10z m-310 -424 c0 -7 7 -19 15 -26 8 -7 13 -16 10 -19
-2 -4 2 -8 10 -8 8 0 15 4 15 8 0 5 7 6 15 3 8 -3 26 3 40 14 21 17 31 19 58
10 18 -5 38 -10 45 -11 6 0 12 -4 12 -9 0 -5 4 -7 10 -3 5 3 17 1 27 -4 10 -5
39 -20 66 -32 26 -13 59 -34 74 -46 14 -13 29 -23 33 -23 3 0 31 -24 61 -52
97 -95 176 -223 202 -333 35 -145 39 -176 34 -231 -9 -96 -37 -204 -71 -274
-33 -68 -116 -211 -127 -220 -14 -11 -89 -159 -113 -222 -13 -36 -31 -113 -40
-170 -12 -82 -19 -107 -37 -120 -19 -16 -53 -18 -369 -18 -318 0 -348 1 -362
18 -16 17 -27 57 -53 195 -8 43 -28 108 -45 143 -16 36 -30 69 -30 73 0 4 -7
16 -15 26 -77 100 -197 329 -220 420 -43 175 -26 338 55 500 51 103 129 204
189 246 19 13 39 29 45 34 33 32 236 126 236 109 0 -3 9 0 19 6 11 5 37 13 58
16 21 3 39 7 41 8 1 2 27 4 57 5 41 1 55 -2 55 -13z m89 2 c31 4 33 3 20 -11
-8 -8 -17 -13 -21 -10 -5 2 -8 -1 -8 -6 0 -6 -5 -11 -11 -11 -5 0 -7 6 -3 13
6 9 5 9 -7 0 -11 -9 -18 -8 -33 2 -22 17 -12 39 12 26 9 -5 32 -6 51 -3z m185
-2303 c-10 -8 -35 -15 -54 -15 -31 0 -39 -6 -68 -50 -18 -27 -35 -56 -38 -65
-5 -12 -30 -15 -148 -15 l-142 0 -24 43 c-13 23 -30 48 -37 55 -7 7 -13 18
-13 23 0 5 -18 9 -39 9 -25 0 -41 5 -45 15 -5 13 34 15 311 15 281 0 315 -2
297 -15z"/>
<path d="M742 2487 c-7 -8 -9 -17 -6 -20 4 -3 -12 -5 -34 -4 -23 0 -38 5 -35
11 3 5 1 6 -5 2 -20 -12 -13 -26 11 -25 12 0 36 -1 54 -3 17 -2 29 0 26 5 -3
5 -1 12 5 16 6 4 7 12 3 19 -6 10 -10 10 -19 -1z"/>
<path d="M786 2491 c-4 -5 3 -7 14 -4 11 3 20 0 20 -6 0 -6 -3 -10 -7 -10 -19
3 -33 -2 -33 -12 0 -5 4 -8 9 -4 5 3 12 1 16 -4 10 -18 33 0 31 25 -1 18 -7
24 -23 24 -12 0 -24 -4 -27 -9z"/>
<path d="M1023 2455 c0 -8 4 -12 9 -9 5 3 6 10 3 15 -9 13 -12 11 -12 -6z"/>
<path d="M410 2159 c-102 -104 -170 -250 -170 -368 0 -53 4 -74 19 -92 l20
-24 21 20 c15 16 23 42 30 105 5 46 15 99 21 119 17 50 88 167 127 209 35 38
40 57 16 66 -30 11 -43 6 -84 -35z"/>
</g>
</svg>
